<svg xmlns="http://www.w3.org/2000/svg" width="70" height="70" fill="none" viewBox="0 0 70 70">
    <path fill="url(#a)" d="M52.08 0c6.273 0 9.409 0 11.805 1.22a11.2 11.2 0 0 1 4.894 4.895C70 8.511 70 11.647 70 17.92v34.16c0 6.273 0 9.409-1.22 11.805a11.2 11.2 0 0 1-4.895 4.894C61.489 70 58.353 70 52.08 70H17.92c-6.273 0-9.409 0-11.805-1.22a11.2 11.2 0 0 1-4.894-4.895C0 61.489 0 58.353 0 52.08V17.92c0-6.273 0-9.409 1.22-11.805a11.2 11.2 0 0 1 4.895-4.894C8.511 0 11.647 0 17.92 0h34.16Z"/>
    <path fill="#FFF5C5" d="m20.367 8-4.22 4.296h38.047L49.974 8h-29.61.003Zm35.899 21.17H14V14.368h42.266v14.804ZM43.61 24.955v-4.22H26.734v4.22h2.072v-2.148h12.656v2.148h2.148Zm12.656 21.17H14V31.322h42.266v14.804ZM43.61 41.906V37.61H26.734v4.295h2.072v-2.148h12.656v2.148h2.148ZM56.266 63H14V48.273h42.266V63ZM43.61 58.78v-4.219H26.734v4.22h2.072v-2.148h12.656v2.148h2.148Z"/>
    <defs>
        <linearGradient id="a" x1="35" x2="35" y1="0" y2="70" gradientUnits="userSpaceOnUse">
            <stop stop-color="#FFDE45"/>
            <stop offset=".553" stop-color="#FFD71F"/>
            <stop offset="1" stop-color="#FFD200"/>
        </linearGradient>
    </defs>
</svg>
